<?xml version="1.0" standalone="no"?>
<svg viewBox="0 0 200 200" xmlns="http://www.w3.org/2000/svg">
  <path fill="#059033" d="M39,-67.2C51.2,-60.4,62.4,-51.4,71.5,-39.9C80.6,-28.3,87.5,-14.2,87.1,-0.3C86.6,13.7,78.8,27.3,69.8,39C60.8,50.7,50.7,60.5,38.9,67.6C27,74.8,13.5,79.3,-0.8,80.6C-15.1,82,-30.1,80.1,-42.5,73.3C-54.9,66.5,-64.6,54.7,-73.4,41.7C-82.2,28.6,-90.1,14.3,-89.4,0.4C-88.6,-13.5,-79.3,-26.9,-69.4,-38.1C-59.5,-49.2,-49,-58,-37.4,-65.2C-25.7,-72.3,-12.9,-77.9,0.2,-78.3C13.3,-78.8,26.7,-74.1,39,-67.2Z" transform="translate(100 100)" />
</svg>