<?xml version="1.0" standalone="no"?>
<svg viewBox="0 0 200 200" xmlns="http://www.w3.org/2000/svg">
  <path fill="#FA4E18" d="M23.6,-45.3C31.6,-36.3,39.7,-32,52.1,-25.2C64.5,-18.4,81.2,-9.2,79.4,-1C77.6,7.1,57.4,14.3,45.3,21.6C33.2,29,29.3,36.5,23.1,42.4C17,48.3,8.5,52.5,-2.9,57.6C-14.4,62.7,-28.7,68.7,-39.2,65.3C-49.8,61.9,-56.4,49.2,-63.8,36.7C-71.1,24.3,-79.1,12.1,-80.4,-0.7C-81.6,-13.6,-76.1,-27.2,-69.3,-40.6C-62.6,-54.1,-54.6,-67.4,-42.8,-74.3C-31.1,-81.1,-15.5,-81.4,-3.9,-74.7C7.8,-68,15.6,-54.3,23.6,-45.3Z" transform="translate(100 100)" />
</svg>
