<svg xmlns="http://www.w3.org/2000/svg" xmlns:xlink="http://www.w3.org/1999/xlink" width="500" zoomAndPan="magnify" viewBox="0 0 375 374.999991" height="500" preserveAspectRatio="xMidYMid meet" version="1.0"><defs><g/></defs><g fill="#ff914d" fill-opacity="1"><g transform="translate(32.489844, 211.153148)"><g><path d="M 219.359375 1.65625 C 219.472656 1.71875 219.59375 1.828125 219.71875 1.984375 C 219.851562 2.148438 219.921875 2.332031 219.921875 2.53125 C 219.921875 2.851562 219.828125 3.109375 219.640625 3.296875 C 219.453125 3.484375 219.226562 3.578125 218.96875 3.578125 L 218.09375 3.5 C 217.976562 3.550781 217.890625 3.578125 217.828125 3.578125 C 201.671875 2.679688 185.742188 2.132812 170.046875 1.9375 C 154.359375 1.75 138.535156 1.6875 122.578125 1.75 C 119.960938 1.75 117.375 1.75 114.8125 1.75 C 113.207031 1.75 111.910156 2.050781 110.921875 2.65625 C 109.929688 3.269531 109.085938 4.347656 108.390625 5.890625 C 104.285156 15.234375 100.09375 24.550781 95.8125 33.84375 C 93.476562 38.90625 91.164062 43.972656 88.875 49.046875 C 87.207031 52.742188 85.578125 56.484375 83.984375 60.265625 C 83.140625 62.128906 82.335938 63.992188 81.578125 65.859375 C 81.515625 66.035156 81.410156 66.222656 81.265625 66.421875 C 81.148438 66.941406 80.929688 67.421875 80.609375 67.859375 C 80.085938 68.296875 79.410156 68.550781 78.578125 68.625 C 77.753906 68.695312 77.035156 68.535156 76.421875 68.140625 C 75.804688 67.753906 75.632812 67.082031 75.90625 66.125 C 76.476562 64.519531 77.117188 62.957031 77.828125 61.4375 C 83.960938 47.40625 90.144531 33.375 96.375 19.34375 C 97.832031 16.082031 99.304688 12.78125 100.796875 9.4375 C 100.992188 8.9375 101.210938 8.394531 101.453125 7.8125 C 101.972656 6.644531 102.492188 5.492188 103.015625 4.359375 C 103.515625 3.085938 103.195312 2.378906 102.0625 2.234375 C 93.90625 2.429688 85.796875 2.789062 77.734375 3.3125 C 73.515625 3.550781 69.25 3.769531 64.9375 3.96875 C 62.519531 4.03125 60.832031 5.179688 59.875 7.421875 C 55.65625 16.535156 51.257812 25.578125 46.6875 34.546875 C 44.007812 39.835938 41.285156 45.148438 38.515625 50.484375 C 37.492188 52.398438 36.472656 54.320312 35.453125 56.25 C 34.878906 57.46875 34.242188 58.617188 33.546875 59.703125 C 32.835938 60.660156 31.882812 61.25 30.6875 61.46875 C 29.5 61.6875 28.460938 61.617188 27.578125 61.265625 C 26.691406 60.921875 26.273438 60.367188 26.328125 59.609375 C 26.648438 58.128906 27.101562 56.71875 27.6875 55.375 C 32.289062 43.582031 37.3125 31.992188 42.75 20.609375 C 44.675781 16.566406 46.597656 12.519531 48.515625 8.46875 C 49.035156 7.1875 48.6875 6.460938 47.46875 6.296875 C 46.25 6.140625 44.457031 6.195312 42.09375 6.46875 C 42.039062 6.46875 41.941406 6.46875 41.796875 6.46875 C 37.691406 6.84375 33.476562 7.414062 29.15625 8.1875 C 24.832031 8.957031 22 9.53125 20.65625 9.90625 C 19.3125 10.226562 17.941406 10.390625 16.546875 10.390625 C 16.460938 10.484375 16.363281 10.53125 16.25 10.53125 C 16.132812 10.53125 16.003906 10.484375 15.859375 10.390625 L 15.109375 10.53125 C 14.847656 10.53125 14.585938 10.425781 14.328125 10.21875 C 14.066406 10.007812 13.9375 9.75 13.9375 9.4375 C 13.988281 9.257812 14.09375 9.039062 14.25 8.78125 C 14.414062 8.519531 14.597656 8.328125 14.796875 8.203125 C 19.921875 6.398438 25.148438 5.148438 30.484375 4.453125 C 36.566406 3.546875 42.648438 2.773438 48.734375 2.140625 C 50.773438 2.078125 52.21875 1.144531 53.0625 -0.65625 C 54.832031 -4.289062 56.679688 -7.929688 58.609375 -11.578125 C 60.910156 -15.878906 63.253906 -20.171875 65.640625 -24.453125 C 66.453125 -26.054688 67.28125 -27.660156 68.125 -29.265625 C 68.238281 -29.410156 68.34375 -29.566406 68.4375 -29.734375 C 68.664062 -30.265625 68.941406 -30.75 69.265625 -31.1875 C 70.859375 -33.039062 72.203125 -35.0625 73.296875 -37.25 C 74.390625 -39.4375 75.390625 -41.675781 76.296875 -43.96875 C 76.734375 -44.9375 77.15625 -45.898438 77.5625 -46.859375 C 85.300781 -64.328125 92.941406 -81.835938 100.484375 -99.390625 C 103.953125 -107.078125 106.617188 -115 108.484375 -123.15625 C 109.234375 -126.09375 109.421875 -129.03125 109.046875 -131.96875 C 108.671875 -133.6875 107.550781 -134.582031 105.6875 -134.65625 C 103.820312 -134.726562 101.5625 -134.25 98.90625 -133.21875 C 96.257812 -132.1875 93.507812 -130.929688 90.65625 -129.453125 C 87.800781 -127.984375 85.222656 -126.539062 82.921875 -125.125 C 80.628906 -123.71875 78.929688 -122.664062 77.828125 -121.96875 C 77.503906 -121.789062 77.285156 -121.660156 77.171875 -121.578125 C 47.117188 -102.890625 20.21875 -80.441406 -3.53125 -54.234375 C -6.15625 -51.359375 -8.664062 -48.382812 -11.0625 -45.3125 C -13.46875 -42.238281 -15.675781 -39 -17.6875 -35.59375 C -19.195312 -33.03125 -20.40625 -30.351562 -21.3125 -27.5625 C -22.414062 -23.25 -22.101562 -19.957031 -20.375 -17.6875 C -18.644531 -15.414062 -16.046875 -13.894531 -12.578125 -13.125 C -9.109375 -12.351562 -5.34375 -12.082031 -1.28125 -12.3125 C 2.769531 -12.550781 6.59375 -12.96875 10.1875 -13.5625 C 13.789062 -14.15625 16.582031 -14.742188 18.5625 -15.328125 C 20.914062 -15.910156 23.285156 -16.460938 25.671875 -16.984375 C 27.710938 -17.367188 28.28125 -17.238281 27.375 -16.59375 C 26.476562 -15.957031 24.53125 -15.078125 21.53125 -13.953125 C 18.53125 -12.828125 14.925781 -11.734375 10.71875 -10.671875 C 6.507812 -9.609375 2.164062 -8.851562 -2.3125 -8.40625 C -6.800781 -7.957031 -11.007812 -8.050781 -14.9375 -8.6875 C -18.863281 -9.332031 -22.0625 -10.796875 -24.53125 -13.078125 C -27.007812 -15.359375 -28.28125 -18.742188 -28.34375 -23.234375 C -28.34375 -23.347656 -28.34375 -23.460938 -28.34375 -23.578125 C -28.195312 -26.398438 -27.523438 -29.09375 -26.328125 -31.65625 C -24.316406 -36.289062 -21.753906 -40.585938 -18.640625 -44.546875 C -15.359375 -48.828125 -11.925781 -52.960938 -8.34375 -56.953125 C 14.71875 -82.242188 40.6875 -104.078125 69.5625 -122.453125 C 72.96875 -124.640625 76.925781 -127.023438 81.4375 -129.609375 C 85.957031 -132.203125 90.601562 -134.378906 95.375 -136.140625 C 100.144531 -137.898438 104.613281 -138.691406 108.78125 -138.515625 C 113.382812 -138.253906 115.90625 -135.851562 116.34375 -131.3125 C 116.539062 -129.625 116.53125 -127.976562 116.3125 -126.375 C 116.09375 -124.78125 115.78125 -123.179688 115.375 -121.578125 C 115.320312 -121.347656 115.265625 -121.101562 115.203125 -120.84375 C 114.359375 -117 113.265625 -113.25 111.921875 -109.59375 C 110.585938 -105.9375 109.148438 -102.316406 107.609375 -98.734375 C 94.472656 -67.523438 80.726562 -36.625 66.375 -6.03125 C 65.9375 -5.125 65.53125 -4.191406 65.15625 -3.234375 C 64.519531 -1.742188 64.585938 -0.710938 65.359375 -0.140625 C 66.128906 0.421875 67.421875 0.703125 69.234375 0.703125 C 71.054688 0.703125 73.191406 0.613281 75.640625 0.4375 C 76.015625 0.4375 76.390625 0.394531 76.765625 0.3125 C 78.367188 0.25 80.003906 0.160156 81.671875 0.046875 C 89.035156 -0.535156 96.34375 -0.929688 103.59375 -1.140625 C 104.875 -1.140625 105.757812 -1.675781 106.25 -2.75 C 106.832031 -3.914062 107.382812 -5.09375 107.90625 -6.28125 C 117.375 -27.101562 127.21875 -47.734375 137.4375 -68.171875 C 147.65625 -88.609375 158.019531 -108.972656 168.53125 -129.265625 C 168.644531 -129.523438 168.773438 -129.785156 168.921875 -130.046875 C 169.296875 -131.015625 169.863281 -131.816406 170.625 -132.453125 C 171.207031 -132.773438 171.882812 -132.9375 172.65625 -132.9375 C 173.425781 -132.9375 174.078125 -132.757812 174.609375 -132.40625 C 175.148438 -132.0625 175.257812 -131.4375 174.9375 -130.53125 C 174.882812 -130.320312 174.800781 -130.101562 174.6875 -129.875 C 173.84375 -127.6875 172.910156 -125.53125 171.890625 -123.40625 C 166.703125 -112.988281 161.472656 -102.582031 156.203125 -92.1875 C 154.367188 -88.488281 152.519531 -84.773438 150.65625 -81.046875 C 138.4375 -56.648438 126.457031 -32.125 114.71875 -7.46875 C 114.519531 -7 114.300781 -6.546875 114.0625 -6.109375 C 113.800781 -5.585938 113.570312 -5.078125 113.375 -4.578125 C 112.675781 -3.035156 112.628906 -2.039062 113.234375 -1.59375 C 113.847656 -1.144531 114.820312 -0.992188 116.15625 -1.140625 C 130.195312 -1.890625 144.5 -2.050781 159.0625 -1.625 C 173.632812 -1.207031 188.097656 -0.625 202.453125 0.125 C 206.847656 0.332031 211.234375 0.550781 215.609375 0.78125 C 215.804688 0.78125 215.960938 0.78125 216.078125 0.78125 C 216.660156 0.78125 217.234375 0.832031 217.796875 0.9375 C 218.367188 1.039062 218.890625 1.28125 219.359375 1.65625 Z M 219.359375 1.65625 "/></g></g></g><g fill="#ff914d" fill-opacity="1"><g transform="translate(184.235062, 211.153148)"><g><path d="M 40.171875 -105.859375 C 40.753906 -105.859375 41.269531 -105.660156 41.71875 -105.265625 C 42.175781 -104.867188 42.429688 -104.425781 42.484375 -103.9375 C 42.546875 -102.976562 42.519531 -102.046875 42.40625 -101.140625 C 42.34375 -100.179688 42.210938 -99.28125 42.015625 -98.4375 C 41.953125 -98.050781 41.921875 -97.703125 41.921875 -97.390625 C 39.617188 -86.929688 36.738281 -76.710938 33.28125 -66.734375 C 32.957031 -65.597656 32.796875 -64.445312 32.796875 -63.28125 C 32.910156 -61.882812 32.648438 -60.570312 32.015625 -59.34375 C 30.554688 -57.164062 29.375 -54.894531 28.46875 -52.53125 C 22.5625 -35.675781 16.21875 -19.023438 9.4375 -2.578125 C 3.726562 11.515625 -2.734375 25.285156 -9.953125 38.734375 C -11.929688 42.253906 -14.046875 45.75 -16.296875 49.21875 C -17.398438 50.695312 -18.617188 52.078125 -19.953125 53.359375 C -21.179688 54.378906 -22.59375 54.671875 -24.1875 54.234375 C -25.851562 53.828125 -26.65625 52.765625 -26.59375 51.046875 C -26.394531 49.015625 -25.941406 47.035156 -25.234375 45.109375 C -21.078125 33.578125 -16.460938 22.238281 -11.390625 11.09375 C -2.109375 -10.039062 8.675781 -30.347656 20.96875 -49.828125 C 23.207031 -53.554688 24.9375 -57.425781 26.15625 -61.4375 C 28.34375 -67.988281 30.394531 -74.5625 32.3125 -81.15625 C 34.238281 -87.75 35.898438 -94.410156 37.296875 -101.140625 C 37.492188 -102.210938 37.753906 -103.304688 38.078125 -104.421875 C 38.460938 -105.378906 39.160156 -105.859375 40.171875 -105.859375 Z M -17.46875 42.015625 C -11.5 31.117188 -6.066406 20.023438 -1.171875 8.734375 C 3.710938 -2.554688 8.207031 -14.070312 12.3125 -25.8125 C 12.257812 -25.75 12.203125 -25.644531 12.140625 -25.5 C 11.929688 -25.382812 11.742188 -25.222656 11.578125 -25.015625 C 11.109375 -24.203125 10.65625 -23.40625 10.21875 -22.625 C 4.832031 -12.632812 -0.148438 -2.453125 -4.734375 7.921875 C -9.316406 18.304688 -13.691406 28.738281 -17.859375 39.21875 C -17.921875 39.363281 -17.953125 39.460938 -17.953125 39.515625 C -18.117188 39.835938 -18.203125 40.207031 -18.203125 40.625 C -18.203125 41.050781 -17.957031 41.515625 -17.46875 42.015625 Z M 231.84375 -108.265625 C 231.84375 -107.992188 231.71875 -107.726562 231.46875 -107.46875 C 231.226562 -107.207031 230.945312 -107.007812 230.625 -106.875 C 230.300781 -106.75 230.007812 -106.757812 229.75 -106.90625 C 228.09375 -107.925781 226.332031 -108.609375 224.46875 -108.953125 C 222.601562 -109.304688 220.738281 -109.582031 218.875 -109.78125 C 217.476562 -109.84375 216.109375 -110.003906 214.765625 -110.265625 C 209.765625 -111.023438 204.757812 -111.664062 199.75 -112.1875 C 183.300781 -113.53125 166.804688 -114.257812 150.265625 -114.375 C 134.347656 -114.570312 118.410156 -114.222656 102.453125 -113.328125 C 84.460938 -112.421875 66.5 -111.082031 48.5625 -109.3125 C 32.082031 -107.820312 15.644531 -106.03125 -0.75 -103.9375 C -1.757812 -103.789062 -2.820312 -103.660156 -3.9375 -103.546875 C -10.1875 -102.703125 -16.429688 -101.796875 -22.671875 -100.828125 C -28.921875 -99.867188 -35.164062 -98.691406 -41.40625 -97.296875 C -41.894531 -97.148438 -42.398438 -97.019531 -42.921875 -96.90625 C -45.335938 -96.320312 -47.769531 -95.679688 -50.21875 -94.984375 C -52.664062 -94.285156 -55.007812 -93.351562 -57.25 -92.1875 C -57.570312 -92.007812 -57.921875 -91.878906 -58.296875 -91.796875 C -58.796875 -91.734375 -59.269531 -91.753906 -59.71875 -91.859375 C -60.164062 -91.960938 -60.523438 -92.234375 -60.796875 -92.671875 C -61.054688 -93.140625 -61.085938 -93.578125 -60.890625 -93.984375 C -60.703125 -94.390625 -60.378906 -94.722656 -59.921875 -94.984375 C -58.460938 -95.742188 -56.929688 -96.414062 -55.328125 -97 C -51.335938 -98.332031 -47.3125 -99.460938 -43.25 -100.390625 C -39.1875 -101.328125 -35.101562 -102.144531 -31 -102.84375 C -19.15625 -104.851562 -7.3125 -106.609375 4.53125 -108.109375 C 16.382812 -109.609375 28.296875 -110.941406 40.265625 -112.109375 C 57.066406 -113.816406 73.878906 -115.179688 90.703125 -116.203125 C 105.378906 -117.171875 120.050781 -117.722656 134.71875 -117.859375 C 145.488281 -117.984375 156.253906 -117.882812 167.015625 -117.5625 C 177.773438 -117.238281 188.523438 -116.597656 199.265625 -115.640625 C 209.078125 -114.617188 218.816406 -113.117188 228.484375 -111.140625 C 229.390625 -110.941406 230.21875 -110.625 230.96875 -110.1875 C 231.613281 -109.71875 231.90625 -109.078125 231.84375 -108.265625 Z M 231.84375 -108.265625 "/></g></g></g></svg>